<?xml version="1.0" encoding="UTF-8" standalone="no"?>
<svg
   version="1.1"
   viewBox="-5 -10 110 110"
   id="svg2"
   sodipodi:docname="seedling.svg"
   inkscape:version="1.3 (0e150ed, 2023-07-21)"
   width="110"
   height="110"
   xmlns:inkscape="http://www.inkscape.org/namespaces/inkscape"
   xmlns:sodipodi="http://sodipodi.sourceforge.net/DTD/sodipodi-0.dtd"
   xmlns="http://www.w3.org/2000/svg"
   xmlns:svg="http://www.w3.org/2000/svg">
  <defs
     id="defs2" />
  <sodipodi:namedview
     id="namedview2"
     pagecolor="#ffffff"
     bordercolor="#000000"
     borderopacity="0.25"
     inkscape:showpageshadow="2"
     inkscape:pageopacity="0.0"
     inkscape:pagecheckerboard="0"
     inkscape:deskcolor="#d1d1d1"
     inkscape:zoom="3.5597174"
     inkscape:cx="58.712526"
     inkscape:cy="70.230294"
     inkscape:window-width="1904"
     inkscape:window-height="1129"
     inkscape:window-x="9"
     inkscape:window-y="34"
     inkscape:window-maximized="0"
     inkscape:current-layer="svg2" />
  <path
     d="m 17.172193,8.5783444 c 0.887858,-0.1170798 1.785482,-0.1024446 2.663549,0.039026 13.839765,2.2098416 23.347267,6.7223146 28.377637,13.7760736 1.000055,1.404957 0.678089,3.351416 -0.726868,4.356366 -1.404957,1.000055 -3.356287,0.673206 -4.356366,-0.731751 -3.883177,-5.44424 -11.927525,-9.263975 -24.27891,-11.234787 -0.292705,-0.0439 -0.595152,-0.04878 -0.887858,-0.01464 -1.712299,0.219523 -2.922061,1.785482 -2.702638,3.492911 2.707509,21.220472 12.869409,32.055502 31.093889,33.275629 l 0.458565,0.02927 0.0049,-0.08781 0.0048,-0.858585 C 47.00343,27.950919 57.843043,14.774294 78.722331,12.076776 l -0.03903,0.0049 0.03903,-0.0049 c 5.029497,-0.648815 9.63963,2.819656 10.444513,7.790706 l 0.04388,0.30246 c 0.08781,0.682971 0.09758,1.370863 0.03418,2.058605 C 87.176552,44.55675 74.965538,56.654369 53.422861,57.810805 l -0.409773,0.01952 v 0.16586 c -0.05853,7.62973 -0.08294,13.542539 -0.08781,17.727438 v 1.282944 c 0,2.444001 0.01464,4.180778 0.03414,5.19547 0,0.05366 0,0.107326 0.0048,0.156106 v 0.02927 l 0.02439,0.08781 c 0.05853,0.253666 0.08294,0.521981 0.07805,0.790284 l -0.01463,0.204887 c -0.0097,0.112197 -0.02439,0.214652 -0.03903,0.317096 -0.03903,0.292705 -0.08781,0.497592 -0.229276,0.834194 -0.126834,0.292706 -0.126834,0.292706 -0.507346,0.819559 -0.712233,0.751259 -0.712233,0.751259 -2.590367,1.082991 -1.731782,-0.541489 -1.731782,-0.541489 -2.297635,-1.263463 -0.312213,-0.492709 -0.312213,-0.492709 -0.419539,-0.770778 -0.11708,-0.321966 -0.156107,-0.521982 -0.18538,-0.804921 -0.03415,-0.287823 -0.05366,-0.692726 -0.0683,-1.351257 -0.02439,-1.136654 -0.03414,-3.063556 -0.03414,-5.795417 v -0.814672 c 0.0048,-4.20513 0.03414,-10.127431 0.08781,-17.767401 v -0.14147 l -0.312213,-0.01463 C 25.065147,56.556237 12.435519,43.638237 9.1672764,19.817657 L 9.0648302,19.051762 C 8.4111317,13.919734 12.040592,9.2316732 17.17262,8.5780246 Z M 83.015355,20.964447 C 82.795832,19.257018 81.229873,18.047256 79.522445,18.266679 62.013556,20.530221 53.398983,30.813883 53.071784,50.083651 l -0.0049,0.585399 c -0.0048,0.287822 -0.0048,0.575645 -0.0097,0.858585 v 0.04878 l 0.468319,-0.02439 C 71.492708,50.464163 81.053911,40.927051 82.970896,22.257732 l 0.05853,-0.604919 c 0.01952,-0.229276 0.01464,-0.458565 -0.01464,-0.687842 z"
     id="path1"
     style="fill:#008000;stroke-width:1.24885" />
</svg>
